<svg width="254" height="94" viewBox="0 0 254 94" fill="none" xmlns="http://www.w3.org/2000/svg">
<g filter="url(#filter0_b_7_76)">
<rect x="0.201904" y="33.1858" width="247.035" height="60.6753" rx="17.3358" transform="rotate(-7.70301 0.201904 33.1858)" fill="white" fill-opacity="0.1"/>
<rect x="-0.712299" y="32.4894" width="248.66" height="62.3005" rx="18.1484" transform="rotate(-7.70301 -0.712299 32.4894)" stroke="url(#paint0_linear_7_76)" stroke-width="1.62523"/>
<rect x="-0.712299" y="32.4894" width="248.66" height="62.3005" rx="18.1484" transform="rotate(-7.70301 -0.712299 32.4894)" stroke="url(#paint1_linear_7_76)" stroke-width="1.62523"/>
</g>
<g clip-path="url(#clip0_7_76)">
<path d="M44.2736 55.1605L50.5185 46.9654L58.7199 53.2125L62.3509 48.4421L49.3817 38.5607L39.5032 51.5295L44.2736 55.1605Z" fill="#F3BA2F"/>
<path d="M36.9371 54.8972L33.3044 59.6662L38.0735 63.2988L41.7061 58.5298L36.9371 54.8972Z" fill="#F3BA2F"/>
<path d="M45.0763 61.0956L53.2744 67.3401L59.5215 59.1387L64.2915 62.7668L64.2889 62.7702L54.4108 75.7419L41.4424 65.8663L41.4357 65.8613L45.0763 61.0956Z" fill="#F3BA2F"/>
<path d="M65.7151 51.0052L62.0825 55.7742L66.8515 59.4069L70.4841 54.6379L65.7151 51.0052Z" fill="#F3BA2F"/>
<path d="M56.1571 56.5735L51.3192 52.8858L48.5944 56.463L48.2791 56.8735L47.6341 57.7203L47.6294 57.7299L47.6361 57.735L52.4731 61.4168L56.1575 56.5764L56.1604 56.576L56.1571 56.5735Z" fill="#F3BA2F"/>
<path d="M75.7412 44.1698L84.8802 42.9337C87.1473 42.6271 88.9409 42.9766 90.2616 43.9851C91.2821 44.7651 91.8828 45.8232 92.0627 47.1536L92.0703 47.2094C92.1465 47.7732 92.1432 48.279 92.0635 48.7294C91.981 49.1802 91.8488 49.5958 91.6607 49.9741C91.4756 50.352 91.2467 50.6939 90.9741 50.9999C90.7015 51.3059 90.3999 51.574 90.0729 51.8096C91.2707 52.0872 92.2488 52.553 93.0042 53.2074C93.7595 53.8618 94.2245 54.8455 94.4021 56.1582L94.4096 56.214C94.5316 57.1156 94.4648 57.9261 94.21 58.6513C93.9548 59.3736 93.5348 60.0046 92.9465 60.5417C92.3616 61.0813 91.6287 61.5214 90.7489 61.8706C89.8691 62.2199 88.877 62.4677 87.7728 62.6171L78.4077 63.8838L75.7412 44.1698ZM85.0419 51.0278C85.9993 50.8983 86.7377 50.631 87.257 50.2258C87.7764 49.8206 87.9864 49.251 87.8875 48.5197L87.8799 48.4639C87.791 47.8061 87.4793 47.3369 86.9449 47.0563C86.4106 46.7757 85.6819 46.6949 84.7628 46.8192L80.4781 47.3987L81.0418 51.5659C81.0422 51.5688 85.0419 51.0278 85.0419 51.0278ZM87.2735 58.815C88.2308 58.6855 88.9592 58.4106 89.4556 57.9906C89.952 57.5705 90.152 56.9933 90.0527 56.2591L90.0452 56.2033C89.9562 55.5455 89.6333 55.0598 89.0733 54.7439C88.5132 54.4279 87.671 54.3474 86.5433 54.4999L81.5304 55.178L82.117 59.5155L87.2735 58.815Z" fill="white"/>
<path d="M97.9131 41.1709L102.251 40.5842L104.917 60.3011L100.58 60.8878L97.9131 41.1709Z" fill="white"/>
<path d="M108.823 39.6953L112.823 39.1542L123.704 50.0448L122.062 37.9046L126.343 37.3255L129.01 57.0423L125.322 57.5412L114.076 46.2992L115.772 58.833L111.49 59.4121L108.823 39.6953Z" fill="white"/>
<path d="M139.454 35.4086L143.454 34.8676L154.591 53.5822L150.057 54.1955L147.656 50.0168L139.319 51.1445L138.114 55.811L133.691 56.4092L139.454 35.4086ZM145.587 46.3971L142.103 40.3582L140.348 47.1057L145.587 46.3971Z" fill="white"/>
<path d="M156.606 33.2322L160.605 32.6912L171.486 43.5818L169.844 31.4416L174.126 30.8625L176.793 50.5793L173.104 51.0782L161.859 39.8362L163.554 52.3699L159.273 52.9491L156.606 33.2322Z" fill="white"/>
<path d="M192.45 48.8055C191.002 49.0013 189.624 48.9185 188.314 48.5634C187.004 48.2083 185.838 47.6305 184.813 46.842C183.788 46.0536 182.938 45.0741 182.265 43.9032C181.59 42.7326 181.158 41.4423 180.967 40.0327L180.96 39.9769C180.769 38.5673 180.843 37.2146 181.185 35.9154C181.526 34.6162 182.083 33.4435 182.858 32.3906C183.634 31.3378 184.616 30.4604 185.8 29.7559C186.985 29.0514 188.341 28.5959 189.862 28.3901C190.781 28.2658 191.631 28.2285 192.412 28.2754C193.193 28.3223 193.911 28.4375 194.566 28.615C195.222 28.7955 195.837 29.0352 196.414 29.34C196.99 29.6448 197.534 29.993 198.047 30.3811L195.717 33.9378C194.85 33.3463 193.996 32.9087 193.144 32.6232C192.292 32.3377 191.369 32.2621 190.374 32.3968C189.549 32.5084 188.804 32.7707 188.142 33.1861C187.481 33.6015 186.935 34.1238 186.504 34.7564C186.075 35.3886 185.766 36.0941 185.585 36.8752C185.404 37.6564 185.37 38.4683 185.484 39.3112L185.491 39.367C185.606 40.2127 185.855 40.9924 186.238 41.7031C186.622 42.4168 187.098 43.0222 187.673 43.5156C188.246 44.0123 188.908 44.3772 189.658 44.6108C190.407 44.8444 191.204 44.904 192.047 44.79C193.175 44.6374 194.099 44.3032 194.821 43.7838C195.543 43.2674 196.242 42.5987 196.915 41.7811L200.053 44.1975C199.619 44.8125 199.159 45.3711 198.674 45.8762C198.189 46.3814 197.64 46.8325 197.036 47.2311C196.429 47.6273 195.754 47.9609 195.006 48.2235C194.26 48.4799 193.407 48.676 192.45 48.8055Z" fill="white"/>
<path d="M202.926 26.967L217.771 24.9591L218.293 28.8179L207.729 30.2467L208.27 34.2464L217.565 32.9892L218.087 36.848L208.792 38.1052L209.352 42.2459L220.057 40.7981L220.579 44.6569L205.593 46.6839L202.926 26.967Z" fill="white"/>
</g>
<defs>
<filter id="filter0_b_7_76" x="-31.0967" y="-31.2248" width="315.536" height="155.837" filterUnits="userSpaceOnUse" color-interpolation-filters="sRGB">
<feFlood flood-opacity="0" result="BackgroundImageFix"/>
<feGaussianBlur in="BackgroundImageFix" stdDeviation="16.0857"/>
<feComposite in2="SourceAlpha" operator="in" result="effect1_backgroundBlur_7_76"/>
<feBlend mode="normal" in="SourceGraphic" in2="effect1_backgroundBlur_7_76" result="shape"/>
</filter>
<linearGradient id="paint0_linear_7_76" x1="2.61247" y1="33.1858" x2="248.42" y2="88.6157" gradientUnits="userSpaceOnUse">
<stop stop-color="white" stop-opacity="0.33"/>
<stop offset="1" stop-color="#06132D"/>
</linearGradient>
<linearGradient id="paint1_linear_7_76" x1="2.61247" y1="33.1858" x2="248.42" y2="88.6157" gradientUnits="userSpaceOnUse">
<stop stop-color="#06132D" stop-opacity="0"/>
<stop offset="1" stop-color="white"/>
</linearGradient>
<clipPath id="clip0_7_76">
<rect width="187.596" height="37.5199" fill="white" transform="translate(30.7896 41.0754) rotate(-7.70301)"/>
</clipPath>
</defs>
</svg>
