<svg width="251" height="65" viewBox="0 0 251 65" fill="none" xmlns="http://www.w3.org/2000/svg">
<g filter="url(#filter0_b_7_79)">
<rect x="2.04248" y="1.8367" width="247.035" height="60.6753" rx="17.3358" fill="white" fill-opacity="0.1"/>
<rect x="1.22987" y="1.02409" width="248.66" height="62.3005" rx="18.1484" stroke="url(#paint0_linear_7_79)" stroke-width="1.62523"/>
<rect x="1.22987" y="1.02409" width="248.66" height="62.3005" rx="18.1484" stroke="url(#paint1_linear_7_79)" stroke-width="1.62523"/>
</g>
<g clip-path="url(#clip0_7_79)">
<path d="M203.688 32.6167C202.634 31.9226 201.462 31.4199 200.36 30.7976C199.642 30.3907 198.876 30.0436 198.266 29.529C197.213 28.6553 197.428 26.9558 198.529 26.2138C200.121 25.1606 202.742 25.747 203.017 27.9013C203.017 27.9492 203.065 27.9731 203.113 27.9731H205.507C205.567 27.9731 205.614 27.9252 205.602 27.8654C205.483 26.3814 204.896 25.1367 203.843 24.3468C202.826 23.5928 201.677 23.1859 200.456 23.1859C194.125 23.1859 193.551 29.8641 196.962 31.9824C197.345 32.2337 200.696 33.9093 201.88 34.6393C203.065 35.3694 203.436 36.6978 202.922 37.751C202.455 38.7085 201.246 39.3787 200.025 39.3069C198.709 39.235 197.68 38.517 197.321 37.4039C197.261 37.2005 197.225 36.8175 197.225 36.6499C197.225 36.6021 197.177 36.5542 197.129 36.5542H194.532C194.484 36.5542 194.436 36.6021 194.436 36.6499C194.436 38.5289 194.903 39.5702 196.184 40.5156C197.38 41.4132 198.685 41.7842 200.037 41.7842C203.58 41.7842 205.411 39.7856 205.794 37.7031C206.117 35.6566 205.507 33.8375 203.688 32.6167Z" fill="white"/>
<path d="M90.9486 23.533H89.7997H88.5431C88.4952 23.533 88.4593 23.5689 88.4473 23.5928L86.317 30.6061C86.2811 30.7019 86.1614 30.7019 86.1255 30.6061L83.9952 23.5928C83.9832 23.545 83.9473 23.533 83.8995 23.533H82.6428H81.4939H79.938C79.8902 23.533 79.8423 23.5809 79.8423 23.6287V41.521C79.8423 41.5689 79.8902 41.6167 79.938 41.6167H82.5351C82.583 41.6167 82.6308 41.5689 82.6308 41.521V27.9253C82.6308 27.8176 82.7864 27.8056 82.8223 27.8894L84.9646 34.9505L85.1202 35.4412C85.1322 35.4891 85.1681 35.501 85.2159 35.501H87.2026C87.2505 35.501 87.2744 35.4651 87.2984 35.4412L87.454 34.9505L89.5962 27.8894C89.6322 27.7816 89.7877 27.8176 89.7877 27.9253V41.521C89.7877 41.5689 89.8356 41.6167 89.8835 41.6167H92.4805C92.5284 41.6167 92.5763 41.5689 92.5763 41.521V23.6287C92.5763 23.5809 92.5284 23.533 92.4805 23.533H90.9486Z" fill="white"/>
<path d="M163.93 23.533C163.882 23.533 163.846 23.5689 163.834 23.5928L161.704 30.6061C161.668 30.7019 161.548 30.7019 161.512 30.6061L159.382 23.5928C159.37 23.545 159.334 23.533 159.286 23.533H155.337C155.289 23.533 155.241 23.5809 155.241 23.6287V41.521C155.241 41.5689 155.289 41.6167 155.337 41.6167H157.934C157.982 41.6167 158.03 41.5689 158.03 41.521V27.9253C158.03 27.8176 158.185 27.8056 158.221 27.8894L160.363 34.9505L160.519 35.4412C160.531 35.4891 160.567 35.501 160.615 35.501H162.601C162.649 35.501 162.685 35.4651 162.697 35.4412L162.853 34.9505L164.995 27.8894C165.031 27.7816 165.186 27.8176 165.186 27.9253V41.521C165.186 41.5689 165.234 41.6167 165.282 41.6167H167.879C167.927 41.6167 167.975 41.5689 167.975 41.521V23.6287C167.975 23.5809 167.927 23.533 167.879 23.533H163.93Z" fill="white"/>
<path d="M130.443 23.533H125.608H123.011H118.176C118.128 23.533 118.08 23.5809 118.08 23.6287V25.8668C118.08 25.9146 118.128 25.9625 118.176 25.9625H122.915V41.521C122.915 41.5689 122.963 41.6167 123.011 41.6167H125.608C125.656 41.6167 125.704 41.5689 125.704 41.521V25.9505H130.443C130.491 25.9505 130.539 25.9027 130.539 25.8548V23.6287C130.539 23.5809 130.503 23.533 130.443 23.533Z" fill="white"/>
<path d="M145.762 41.6167H148.12C148.18 41.6167 148.228 41.5568 148.216 41.497L143.333 23.533C143.321 23.4851 143.285 23.4731 143.237 23.4731H142.339H140.748H139.85C139.802 23.4731 139.766 23.509 139.754 23.533L134.871 41.497C134.859 41.5568 134.907 41.6167 134.967 41.6167H137.325C137.373 41.6167 137.396 41.5808 137.42 41.5568L138.833 36.3268C138.845 36.2789 138.881 36.267 138.928 36.267H144.158C144.206 36.267 144.242 36.3029 144.254 36.3268L145.666 41.5568C145.678 41.5808 145.726 41.6167 145.762 41.6167ZM139.551 33.7058L141.442 26.7165C141.478 26.6207 141.597 26.6207 141.633 26.7165L143.524 33.7058C143.536 33.7656 143.488 33.8255 143.428 33.8255H139.635C139.587 33.8375 139.539 33.7656 139.551 33.7058Z" fill="white"/>
<path d="M186.059 41.6167H188.416C188.476 41.6167 188.524 41.5568 188.512 41.497L183.629 23.533C183.617 23.4851 183.581 23.4731 183.534 23.4731H182.636H181.056H180.159C180.111 23.4731 180.075 23.509 180.063 23.533L175.18 41.497C175.168 41.5568 175.216 41.6167 175.276 41.6167H177.633C177.681 41.6167 177.717 41.5808 177.729 41.5568L179.141 36.3268C179.153 36.2789 179.189 36.267 179.237 36.267H184.467C184.515 36.267 184.551 36.3029 184.563 36.3268L185.975 41.5568C185.975 41.5808 186.011 41.6167 186.059 41.6167ZM179.847 33.7058L181.75 26.7165C181.786 26.6207 181.906 26.6207 181.942 26.7165L183.845 33.7058C183.857 33.7656 183.809 33.8255 183.749 33.8255H179.955C179.883 33.8375 179.835 33.7656 179.847 33.7058Z" fill="white"/>
<path d="M103.108 38.9599V33.4067C103.108 33.3588 103.156 33.3109 103.204 33.3109H110.121C110.169 33.3109 110.217 33.2631 110.217 33.2152V30.9891C110.217 30.9413 110.169 30.8934 110.121 30.8934H103.204C103.156 30.8934 103.108 30.8455 103.108 30.7977V26.0583C103.108 26.0104 103.156 25.9626 103.204 25.9626H111.067C111.115 25.9626 111.163 25.9147 111.163 25.8668V23.6408C111.163 23.5929 111.115 23.545 111.067 23.545H103.108H100.415C100.367 23.545 100.32 23.5929 100.32 23.6408V25.9626V30.9054V33.3229V39.0556V41.5091C100.32 41.5569 100.367 41.6048 100.415 41.6048H103.108H111.39C111.438 41.6048 111.486 41.5569 111.486 41.5091V39.1514C111.486 39.1035 111.438 39.0556 111.39 39.0556H103.18C103.144 39.0556 103.108 39.0317 103.108 38.9599Z" fill="white"/>
<path d="M227.42 41.4612L218.432 32.1979C218.396 32.162 218.396 32.1022 218.432 32.0782L226.523 23.7006C226.583 23.6408 226.535 23.545 226.463 23.545H223.148C223.112 23.545 223.1 23.557 223.088 23.5809L216.23 30.678C216.17 30.7378 216.075 30.6899 216.075 30.6181V23.6408C216.075 23.5929 216.027 23.545 215.979 23.545H213.382C213.334 23.545 213.286 23.5929 213.286 23.6408V41.533C213.286 41.5809 213.334 41.6287 213.382 41.6287H215.979C216.027 41.6287 216.075 41.5809 216.075 41.533V33.658C216.075 33.5862 216.182 33.5383 216.23 33.5982L223.998 41.6048C224.01 41.6168 224.045 41.6407 224.057 41.6407H227.373C227.432 41.6168 227.48 41.5091 227.42 41.4612Z" fill="white"/>
<path d="M62.1057 13.9106L46.3916 25.5316L49.3118 18.6739L62.1057 13.9106Z" fill="#E17726" stroke="#E17726" stroke-width="0.299201" stroke-linecap="round" stroke-linejoin="round"/>
<path d="M25.8545 13.9106L41.4369 25.6513L38.6483 18.6859L25.8545 13.9106Z" fill="#E27625" stroke="#E27625" stroke-width="0.299201" stroke-linecap="round" stroke-linejoin="round"/>
<path d="M56.4447 40.8747L52.2678 47.2656L61.2199 49.7311L63.7811 41.0183L56.4447 40.8747Z" fill="#E27625" stroke="#E27625" stroke-width="0.299201" stroke-linecap="round" stroke-linejoin="round"/>
<path d="M24.1909 41.0183L26.7401 49.7311L35.6803 47.2656L31.5154 40.8747L24.1909 41.0183Z" fill="#E27625" stroke="#E27625" stroke-width="0.299201" stroke-linecap="round" stroke-linejoin="round"/>
<path d="M35.2013 30.0795L32.7119 33.8375L41.5683 34.2444L41.2691 24.7059L35.2013 30.0795Z" fill="#E27625" stroke="#E27625" stroke-width="0.299201" stroke-linecap="round" stroke-linejoin="round"/>
<path d="M52.7706 30.0795L46.5951 24.5862L46.3916 34.2324L55.248 33.8255L52.7706 30.0795Z" fill="#E27625" stroke="#E27625" stroke-width="0.299201" stroke-linecap="round" stroke-linejoin="round"/>
<path d="M35.6802 47.2656L41.0419 44.6805L36.4222 41.0781L35.6802 47.2656Z" fill="#E27625" stroke="#E27625" stroke-width="0.299201" stroke-linecap="round" stroke-linejoin="round"/>
<path d="M46.9182 44.6685L52.2679 47.2656L51.5379 41.0781L46.9182 44.6685Z" fill="#E27625" stroke="#E27625" stroke-width="0.299201" stroke-linecap="round" stroke-linejoin="round"/>
<path d="M52.2679 47.2656L46.9182 44.6805L47.3491 48.1512L47.3012 49.6233L52.2679 47.2656Z" fill="#D5BFB2" stroke="#D5BFB2" stroke-width="0.299201" stroke-linecap="round" stroke-linejoin="round"/>
<path d="M35.6802 47.2656L40.6589 49.6233L40.623 48.1512L41.0419 44.6805L35.6802 47.2656Z" fill="#D5BFB2" stroke="#D5BFB2" stroke-width="0.299201" stroke-linecap="round" stroke-linejoin="round"/>
<path d="M40.7426 38.7802L36.2905 37.4757L39.4262 36.0276L40.7426 38.7802Z" fill="#233447" stroke="#233447" stroke-width="0.299201" stroke-linecap="round" stroke-linejoin="round"/>
<path d="M47.2173 38.7803L48.5218 36.0396L51.6814 37.4877L47.2173 38.7803Z" fill="#233447" stroke="#233447" stroke-width="0.299201" stroke-linecap="round" stroke-linejoin="round"/>
<path d="M35.6803 47.2656L36.4582 40.8747L31.5154 41.0183L35.6803 47.2656Z" fill="#CC6228" stroke="#CC6228" stroke-width="0.299201" stroke-linecap="round" stroke-linejoin="round"/>
<path d="M51.502 40.8747L52.2679 47.2656L56.4448 41.0183L51.502 40.8747Z" fill="#CC6228" stroke="#CC6228" stroke-width="0.299201" stroke-linecap="round" stroke-linejoin="round"/>
<path d="M55.248 33.8375L46.3916 34.2444L47.2174 38.7923L48.5219 36.0516L51.6815 37.4997L55.248 33.8375Z" fill="#CC6228" stroke="#CC6228" stroke-width="0.299201" stroke-linecap="round" stroke-linejoin="round"/>
<path d="M36.3023 37.4758L39.438 36.0276L40.7425 38.7683L41.5683 34.2205L32.7119 33.8135L36.3023 37.4758Z" fill="#CC6228" stroke="#CC6228" stroke-width="0.299201" stroke-linecap="round" stroke-linejoin="round"/>
<path d="M32.7119 33.8375L36.422 41.0782L36.3023 37.4758L32.7119 33.8375Z" fill="#E27525" stroke="#E27525" stroke-width="0.299201" stroke-linecap="round" stroke-linejoin="round"/>
<path d="M51.6815 37.4758L51.5378 41.0782L55.2479 33.8375L51.6815 37.4758Z" fill="#E27525" stroke="#E27525" stroke-width="0.299201" stroke-linecap="round" stroke-linejoin="round"/>
<path d="M41.5685 34.2324L40.7427 38.7803L41.7839 44.1419L42.0113 37.0688L41.5685 34.2324Z" fill="#E27525" stroke="#E27525" stroke-width="0.299201" stroke-linecap="round" stroke-linejoin="round"/>
<path d="M46.3915 34.2324L45.9607 37.0569L46.1761 44.1419L47.2173 38.7803L46.3915 34.2324Z" fill="#E27525" stroke="#E27525" stroke-width="0.299201" stroke-linecap="round" stroke-linejoin="round"/>
<path d="M47.2175 38.7803L46.1763 44.142L46.9183 44.6686L51.538 41.0662L51.6816 37.4638L47.2175 38.7803Z" fill="#F5841F" stroke="#F5841F" stroke-width="0.299201" stroke-linecap="round" stroke-linejoin="round"/>
<path d="M36.3025 37.4757L36.4222 41.0781L41.0418 44.6804L41.7839 44.1539L40.7426 38.7922L36.3025 37.4757Z" fill="#F5841F" stroke="#F5841F" stroke-width="0.299201" stroke-linecap="round" stroke-linejoin="round"/>
<path d="M47.3131 49.6233L47.361 48.1513L46.9541 47.8042H41.0179L40.635 48.1513L40.6709 49.6233L35.6802 47.2656L37.4275 48.6898L40.9581 51.1193H47.002L50.5445 48.6898L52.2679 47.2656L47.3131 49.6233Z" fill="#C0AC9D" stroke="#C0AC9D" stroke-width="0.299201" stroke-linecap="round" stroke-linejoin="round"/>
<path d="M46.9182 44.6686L46.1762 44.142H41.7839L41.0419 44.6686L40.623 48.1393L41.006 47.7922H46.9422L47.3491 48.1393L46.9182 44.6686Z" fill="white" stroke="white" stroke-width="0.299201" stroke-linecap="round" stroke-linejoin="round"/>
<path d="M62.7759 26.2976L64.0924 19.8827L62.1057 13.9106L46.9182 25.1486L52.7586 30.0795L61.0166 32.4851L62.8357 30.3548L62.0458 29.7803L63.3025 28.6314L62.3331 27.8893L63.5897 26.9319L62.7759 26.2976Z" fill="#763E1A" stroke="#763E1A" stroke-width="0.299201" stroke-linecap="round" stroke-linejoin="round"/>
<path d="M23.8677 19.8707L25.2081 26.2856L24.3584 26.9199L25.6389 27.8774L24.6695 28.6194L25.9262 29.7683L25.1363 30.3428L26.9554 32.4731L35.2134 30.0675L41.0538 25.1367L25.8544 13.9106L23.8677 19.8707Z" fill="#763E1A" stroke="#763E1A" stroke-width="0.299201" stroke-linecap="round" stroke-linejoin="round"/>
<path d="M61.0165 32.4851L52.7586 30.0795L55.2479 33.8375L51.5378 41.0782L56.4567 41.0183H63.7931L61.0165 32.4851Z" fill="#F5841F" stroke="#F5841F" stroke-width="0.299201" stroke-linecap="round" stroke-linejoin="round"/>
<path d="M35.2015 30.0795L26.9436 32.4851L24.1909 41.0183H31.5154L36.4342 41.0782L32.7241 33.8375L35.2015 30.0795Z" fill="#F5841F" stroke="#F5841F" stroke-width="0.299201" stroke-linecap="round" stroke-linejoin="round"/>
<path d="M46.3915 34.2324L46.9181 25.1486L49.3117 18.6859H38.6482L41.0418 25.1486L41.5684 34.2324L41.7719 37.0808L41.7838 44.1419H46.1641L46.1761 37.0808L46.3915 34.2324Z" fill="#F5841F" stroke="#F5841F" stroke-width="0.299201" stroke-linecap="round" stroke-linejoin="round"/>
</g>
<defs>
<filter id="filter0_b_7_79" x="-31.7541" y="-31.9599" width="314.628" height="128.268" filterUnits="userSpaceOnUse" color-interpolation-filters="sRGB">
<feFlood flood-opacity="0" result="BackgroundImageFix"/>
<feGaussianBlur in="BackgroundImageFix" stdDeviation="16.0857"/>
<feComposite in2="SourceAlpha" operator="in" result="effect1_backgroundBlur_7_79"/>
<feBlend mode="normal" in="SourceGraphic" in2="effect1_backgroundBlur_7_79" result="shape"/>
</filter>
<linearGradient id="paint0_linear_7_79" x1="4.45305" y1="1.83668" x2="250.26" y2="57.2666" gradientUnits="userSpaceOnUse">
<stop stop-color="white" stop-opacity="0.33"/>
<stop offset="1" stop-color="#06132D"/>
</linearGradient>
<linearGradient id="paint1_linear_7_79" x1="4.45305" y1="1.83668" x2="250.26" y2="57.2666" gradientUnits="userSpaceOnUse">
<stop stop-color="#06132D" stop-opacity="0"/>
<stop offset="1" stop-color="white"/>
</linearGradient>
<clipPath id="clip0_7_79">
<rect width="203.732" height="37.5199" fill="white" transform="translate(23.7122 13.755)"/>
</clipPath>
</defs>
</svg>
